/* XPM */
static char *bluew[] = {
/* columns rows colors chars-per-pixel */
"64 64 256 2 ",
"   c black",
".  c #0000A8",
"X  c #00A800",
"o  c #00A8A8",
"O  c #A80000",
"+  c #A800A8",
"@  c #A85400",
"#  c gray66",
"$  c gray33",
"%  c #5454FC",
"&  c #54FC54",
"*  c #54FCFC",
"=  c #FC5454",
"-  c #FC54FC",
";  c #FCFC54",
":  c gray99",
">  c #ECECEC",
",  c gainsboro",
"<  c #D0D0D0",
"1  c #C0C0C0",
"2  c #B4B4B4",
"3  c gray66",
"4  c #989898",
"5  c gray55",
"6  c #7C7C7C",
"7  c gray44",
"8  c #646464",
"9  c gray33",
"0  c #484848",
"q  c gray22",
"w  c #2C2C2C",
"e  c #202020",
"r  c #FC0000",
"t  c #EC0000",
"y  c #E00000",
"u  c #D40000",
"i  c #C80000",
"p  c #BC0000",
"a  c #B00000",
"s  c #A40000",
"d  c #980000",
"f  c #880000",
"g  c #7C0000",
"h  c #700000",
"j  c #640000",
"k  c #580000",
"l  c #4C0000",
"z  c #400000",
"x  c #FCD8D8",
"c  c #FCB8B8",
"v  c #FC9C9C",
"b  c #FC7C7C",
"n  c #FC5C5C",
"m  c #FC4040",
"M  c #FC2020",
"N  c #FC0000",
"B  c #FCA85C",
"V  c #FC9840",
"C  c #FC8820",
"Z  c #FC7800",
"A  c #E46C00",
"S  c #CC6000",
"D  c #B45400",
"F  c #9C4C00",
"G  c #FCFCD8",
"H  c #FCFCB8",
"J  c #FCFC9C",
"K  c #FCFC7C",
"L  c #FCF85C",
"P  c #FCF440",
"I  c #FCF420",
"U  c #FCF400",
"Y  c #E4D800",
"T  c #CCC400",
"R  c #B4AC00",
"E  c #9C9C00",
"W  c #848400",
"Q  c #706C00",
"!  c #585400",
"~  c #404000",
"^  c #D0FC5C",
"/  c #C4FC40",
"(  c #B4FC20",
")  c #A0FC00",
"_  c #90E400",
"`  c #80CC00",
"'  c #74B400",
"]  c #609C00",
"[  c #D8FCD8",
"{  c #BCFCB8",
"}  c #9CFC9C",
"|  c #80FC7C",
" . c #60FC5C",
".. c #40FC40",
"X. c #20FC20",
"o. c #00FC00",
"O. c #00FC00",
"+. c #00EC00",
"@. c #00E000",
"#. c #00D400",
"$. c #04C800",
"%. c #04BC00",
"&. c #04B000",
"*. c #04A400",
"=. c #049800",
"-. c #048800",
";. c #047C00",
":. c #047000",
">. c #046400",
",. c #045800",
"<. c #044C00",
"1. c #044000",
"2. c #D8FCFC",
"3. c #B8FCFC",
"4. c #9CFCFC",
"5. c #7CFCF8",
"6. c #5CFCFC",
"7. c #40FCFC",
"8. c #20FCFC",
"9. c #00FCFC",
"0. c #00E4E4",
"q. c #00CCCC",
"w. c #00B4B4",
"e. c #009C9C",
"r. c #008484",
"t. c #007070",
"y. c #005858",
"u. c #004040",
"i. c #5CBCFC",
"p. c #40B0FC",
"a. c #20A8FC",
"s. c #009CFC",
"d. c #008CE4",
"f. c #007CCC",
"g. c #006CB4",
"h. c #005C9C",
"j. c #D8D8FC",
"k. c #B8BCFC",
"l. c #9C9CFC",
"z. c #7C80FC",
"x. c #5C60FC",
"c. c #4040FC",
"v. c #2024FC",
"b. c #0004FC",
"n. c #0000FC",
"m. c #0000EC",
"M. c #0000E0",
"N. c #0000D4",
"B. c #0000C8",
"V. c #0000BC",
"C. c #0000B0",
"Z. c #0000A4",
"A. c #000098",
"S. c #000088",
"D. c #00007C",
"F. c #000070",
"G. c #000064",
"H. c #000058",
"J. c #00004C",
"K. c #000040",
"L. c #282828",
"P. c #FCE034",
"I. c #FCD424",
"U. c #FCCC18",
"Y. c #FCC008",
"T. c #FCB400",
"R. c #B420FC",
"E. c #A800FC",
"W. c #9800E4",
"Q. c #8000CC",
"!. c #7400B4",
"~. c #60009C",
"^. c #500084",
"/. c #440070",
"(. c #340058",
"). c #280040",
"_. c #FCD8FC",
"`. c #FCB8FC",
"'. c #FC9CFC",
"]. c #FC7CFC",
"[. c #FC5CFC",
"{. c #FC40FC",
"}. c #FC20FC",
"|. c #FC00FC",
" X c #E000E4",
".X c #C800CC",
"XX c #B400B4",
"oX c #9C009C",
"OX c #840084",
"+X c #6C0070",
"@X c #580058",
"#X c #400040",
"$X c #FCE8DC",
"%X c #FCE0D0",
"&X c #FCD8C4",
"*X c #FCD4BC",
"=X c #FCCCB0",
"-X c #FCC4A4",
";X c #FCBC9C",
":X c #FCB890",
">X c #FCB080",
",X c #FCA470",
"<X c #FC9C60",
"1X c #F0945C",
"2X c #E88C58",
"3X c #DC8854",
"4X c #D08050",
"5X c #C87C4C",
"6X c #BC7848",
"7X c #B47044",
"8X c #A86840",
"9X c #A0643C",
"0X c #9C6038",
"qX c #905C34",
"wX c #885830",
"eX c #80502C",
"rX c #744C28",
"tX c #6C4824",
"yX c #5C4020",
"uX c #543C1C",
"iX c #483818",
"pX c #403018",
"aX c #382C14",
"sX c #28200C",
"dX c #600064",
"fX c #006464",
"gX c #006060",
"hX c #00001C",
"jX c #00002C",
"kX c #302410",
"lX c #480048",
"zX c #500050",
"xX c #000034",
"cX c gray11",
"vX c #4C4C4C",
"bX c gray36",
"nX c gray25",
"mX c gray19",
"MX c #343434",
"NX c #D8F4F4",
"BX c #B8E8E8",
"VX c #9CDCDC",
"CX c #74C8C8",
"ZX c #48C0C0",
"AX c #20B4B4",
"SX c #20B0B0",
"DX c #00A4A4",
"FX c #009898",
"GX c #008C8C",
"HX c #008484",
"JX c #007C7C",
"KX c #007878",
"LX c #007474",
"PX c #007070",
"IX c #006C6C",
"UX c #980088",
/* pixels */
"q q q q q q q q q q q q q q q q q q q q q q q q q q q q q q q q q q q q q q q q q q q q q q q q q q q q q q q q q q q q q q q q ",
"$ q $ 0 0 0 0 0 $ 0 0 0 0 0 0 $ 0 q 0 0 0 0 0 0 0 $ $ $ $ $ $ 0 0 0 0 0 0 0 0 0 $ $ $ $ $ $ $ 0 0 0 0 q q q 0 0 $ $ 0 0 0 0 0 q ",
"q Z.V.C.. . . . C.. . A.D.0 0 $ Z.C.. . . . . . . . C.C.. . . . Z.. . Z.D.0 q $ Z.V.V.V.V.V.V.V.C.C.. . . . . . Z.Z.Z.Z.Z.A.D.0 ",
"0 V.B.V.V.V.V.V.V.V.C.A.G.L.0 $ V.B.. . . . C.C.C.V.V.V.V.C.. . . C.C.A.F.L.0 q . B.B.V.V.V.V.B.V.V.V.B.B.V.C.C.. . . . . A.F.L.",
"0 . C.A.Z.. . . . Z.A.F.J.L.0 $ C.C.A.A.A.Z.A.A.Z.Z.Z.. Z.A.A.A.A.A.A.D.H.L.0 $ . . Z.A.A.A.A.. Z.A.Z.C.C.Z.Z.A.A.A.A.A.A.D.H.L.",
"0 Z.. A.A.A.A.A.A.S.F.J.K.L.0 $ . C.Z.Z.Z.A.A.A.A.A.S.A.S.S.S.S.A.S.D.G.J.L.0 0 Z.A.S.S.A.S.S.A.S.S.A.A.Z.A.A.S.S.S.S.S.D.G.J.L.",
"0 Z.. A.A.S.S.A.S.S.G.J.xXL.0 $ Z.V.C.Z.A.A.S.S.S.S.D.S.S.S.S.S.S.D.F.G.J.L.q 0 A.A.S.S.S.S.S.S.D.D.S.A.A.S.S.S.S.S.A.S.D.G.J.L.",
"0 A.Z.S.S.D.F.F.F.G.H.J.xXL.0 0 A.C.. A.S.D.D.D.D.F.G.F.F.F.F.D.D.F.G.G.J.L.q 0 A.A.S.S.S.D.F.F.G.G.F.D.D.F.F.F.D.S.S.S.D.G.K.L.",
"0 S.A.D.F.G.J.J.J.J.J.J.xXL.q $ S.A.S.F.G.G.G.G.G.H.H.H.J.J.J.H.G.G.G.H.K.L.q 0 S.S.F.G.G.G.G.G.G.G.G.G.G.H.G.G.G.G.F.F.G.G.K.L.",
"0 (.G.H.J.J.K.xXxXK.K.xXxXL.q 0 (.G.H.J.J.J.J.J.J.J.J.K.K.xXxXxXK.K.K.K.xXL.q 0 (.G.H.J.J.J.J.J.J.J.J.J.J.J.J.J.J.J.J.J.J.J.xXL.",
"0 0 L.L.L.L.L.L.L.L.e e e L.q $ 0 L.L.L.L.L.e e e e e L.L.e e e e L.L.L.L.L.0 $ q L.L.L.L.L.L.L.L.L.L.L.e e e e e L.L.L.L.L.L.L.",
"$ q q q q 0 0 0 0 q q q q q 0 q 0 0 0 0 0 0 0 q q q $ 0 0 0 q q 0 0 0 0 0 0 $ q 0 $ $ $ $ $ 8 8 $ $ $ 0 0 nXq nX$ q $ 0 0 0 $ q ",
"C.Z.Z.Z.A.A.A.A.A.A.A.A.A.A.S.(.0 $ 0 Z.C.. . Z.Z.A.Z.Z.Z.Z.Z.Z.. Z.Z.A.A.A.A.A.A.A.A.A.A.A.Z.Z.Z.Z.Z.A.(.0 nX$ Z.V.. . . . . . ",
"C.Z.Z.. Z.Z.Z.Z.Z.Z.Z.Z.Z.A.S.G.q 0 $ C.C.. C.Z.Z.A.A.. . . C.C.V.C.. . C.C.. . . . . Z.Z.Z.. C.C.. . A.G.q 0 q V.B.C.C.C.C.. C.",
"A.A.A.A.A.A.S.A.A.A.S.A.A.S.G.J.L.0 0 . Z.A.A.A.A.S.A.A.A.A.A.Z.. Z.Z.Z.Z.Z.Z.Z.Z.A.A.A.A.A.A.A.A.S.S.F.J.q 0 $ . C.Z.A.A.A.A.A.",
"S.A.A.A.A.S.S.S.S.S.S.S.D.G.J.xXL.q 0 Z.A.S.A.A.A.A.A.A.A.A.A.A.A.A.A.A.A.A.A.A.A.A.A.A.A.S.S.D.D.F.G.H.K.L.nX0 Z.. A.A.A.A.S.S.",
"A.A.A.S.S.S.S.D.S.S.S.D.F.H.J.xXL.q 0 Z.A.S.S.S.S.A.A.A.A.A.S.S.D.D.D.S.D.D.D.S.S.S.S.S.S.S.D.F.G.G.H.J.xXL.q 0 Z.. A.S.S.S.S.D.",
"S.A.S.D.F.F.F.F.G.F.F.D.F.G.J.xXL.0 $ Z.Z.S.D.F.F.D.S.S.S.S.D.D.F.G.G.G.G.G.G.G.G.F.F.D.S.S.S.D.F.G.G.J.K.e q 0 A.Z.S.D.G.F.D.D.",
"F.S.F.G.H.J.H.H.H.J.H.G.G.H.J.K.L.0 $ A.A.D.F.G.G.G.G.G.G.G.G.G.G.G.H.H.H.H.H.H.H.H.G.G.G.F.F.F.G.F.G.H.K.e nX$ A.S.F.G.J.H.G.G.",
"J.J.J.J.K.K.K.K.K.K.K.J.K.K.K.).q 0 $ D.G.G.H.H.J.J.J.H.H.H.H.H.J.J.J.J.J.J.J.J.J.J.J.J.J.J.J.J.J.J.J.J.xXe 0 q (.G.J.J.K.K.J.J.",
"L.L.L.e L.L.L.e e e L.L.L.e e L.q 0 q 0 q mXL.L.L.L.L.L.mXmXq q mXL.L.L.e e e e e L.L.L.e e e e L.L.L.L.L.q 0 $ 0 L.L.L.L.L.L.L.",
"$ $ 0 q q 0 $ q $ q 0 0 q q q q 0 0 $ 0 0 0 nXq nXq nXq nX0 0 0 $ q $ 0 nXq q q nXnX0 0 $ nXq q nX0 0 0 $ 0 $ q $ nXq nX$ 0 0 0 ",
"$ Z.C.. Z.Z.. Z.. Z.A.A.A.A.A.A.A.A.A.A.A.A.A.A.A.A.S.(.0 $ $ . C.. . . Z.Z.Z.Z.. . . Z.A.A.A.A.A.A.A.A.A.A.A.A.A.A.A.A.A.S.(.0 ",
"$ C.V.C.C.. . . . . . . . . C.C.. . . . Z.. Z.A.Z.. S.H.q 0 $ V.B.. C.C.. Z.. C.C.C.V.C.C.. . . . . . . . Z.Z.A.A.A.A.A.S.S.H.L.",
"q . . A.A.A.A.A.A.A.A.A.A.A.Z.Z.A.A.A.A.A.S.S.A.A.A.D.J.L.0 $ C.V.Z.Z.A.A.S.A.A.A.A.Z.Z.Z.Z.A.A.A.A.A.A.A.A.A.S.S.S.S.S.F.G.J.L.",
"0 A.Z.A.A.A.A.A.S.S.S.S.A.A.A.A.S.S.S.S.D.S.S.S.S.D.G.J.L.$ 8 C.C.A.A.S.S.S.A.A.S.S.S.A.A.S.S.S.S.A.A.A.A.S.S.D.F.F.F.G.G.J.K.L.",
"0 A.Z.A.A.S.A.S.F.D.D.D.S.S.S.S.S.S.S.S.D.S.S.D.F.F.H.K.L.$ $ . . A.S.S.S.A.A.S.S.S.S.S.S.D.D.D.D.S.S.S.S.S.D.F.F.G.G.G.H.J.xXL.",
"$ A.A.S.D.D.S.D.G.F.G.G.F.D.S.D.F.F.F.F.D.D.D.D.D.D.G.J.L.0 $ . C.A.S.S.S.S.S.S.D.F.F.F.F.G.G.G.G.G.G.G.G.F.F.F.F.F.F.G.G.J.K.L.",
"0 A.A.F.G.G.G.G.G.G.G.G.G.G.G.G.G.H.H.H.G.G.G.F.F.G.G.K.L.q $ Z.A.S.S.D.F.F.F.F.G.G.G.G.G.G.H.H.H.H.H.H.H.G.G.G.G.G.G.G.G.H.K.L.",
"0 /.D.G.H.H.H.J.J.J.J.J.J.J.J.J.J.J.K.J.J.J.J.J.J.J.K.xXL.q $ /.G.H.H.H.H.H.H.J.J.J.J.J.J.J.J.J.J.J.J.J.J.J.J.J.J.J.J.J.H.J.xXL.",
"0 0 q L.L.L.L.L.L.L.L.L.L.L.L.L.L.L.L.L.q q q L.L.L.L.L.L.0 0 0 L.L.L.L.L.L.L.L.e e e e e L.q q q L.e e e L.L.L.L.L.L.L.L.L.L.L.",
"$ $ $ $ $ 0 0 q 0 q q q 0 $ 8 8 $ $ $ 0 0 0 nXnXq q nXq q nX$ 0 0 0 $ q $ 0 $ 0 nXq nXq nX0 $ $ 0 0 nXq nX0 0 0 $ q $ 0 0 0 $ q ",
"A.A.A.Z.Z.Z.A.A.A.A.(.0 q $ ^.. Z.Z.Z.Z.Z.Z.A.A.A.A.A.A.A.A.A.A.A.A.A.A.A.A.A.(.0 $ $ A.. Z.Z.Z.Z.. Z.Z.Z.Z.A.A.A.A.A.A.A.A.A.A.",
". . . . C.V.C.C.. A.G.q 0 q Z.Z.A.A.A.Z.. Z.A.Z.Z.Z.Z.Z.A.Z.Z.A.A.Z.A.A.A.A.S.G.q 0 $ . C.A.A.A.Z.. Z.Z.. . Z.A.A.A.A.A.A.A.A.A.",
"A.A.A.Z.. C.. Z.A.F.J.L.0 $ A.A.S.A.S.A.A.A.A.A.A.A.A.S.S.A.A.S.A.A.S.S.S.S.D.J.q $ $ . . S.S.S.A.A.A.S.A.A.A.S.A.A.A.S.S.A.S.S.",
"A.S.S.A.A.Z.A.A.D.H.K.L.0 q A.A.S.A.A.A.A.S.S.S.A.A.S.S.S.S.S.S.S.S.S.S.S.S.G.J.q $ 8 C.. A.S.S.A.S.S.S.A.A.S.S.S.A.S.S.S.S.S.D.",
"A.A.S.S.A.A.S.S.G.J.K.q 0 $ Z.A.S.S.S.S.S.S.S.S.S.S.S.D.D.S.D.S.S.S.A.S.S.D.G.K.q $ 8 . C.A.S.A.A.S.A.S.A.A.S.S.A.A.S.S.S.S.S.S.",
"A.S.S.D.D.D.D.F.G.J.K.q 0 0 A.A.S.A.S.S.D.S.S.S.S.S.D.G.F.D.F.D.S.S.S.S.S.D.G.J.q 0 $ . . A.S.S.S.S.S.S.S.S.S.S.S.S.S.S.S.A.S.D.",
"F.G.G.G.H.H.H.H.H.J.K.q 0 0 S.D.S.S.D.F.F.F.F.F.G.G.G.H.G.G.G.G.G.F.D.D.F.F.G.K.L.0 $ A.A.D.D.D.D.D.F.F.F.F.F.F.F.F.F.F.S.S.S.F.",
"J.J.J.J.K.K.K.K.K.K.xXL.0 0 (.G.G.G.H.H.H.H.H.H.J.J.J.J.J.J.J.J.J.J.H.H.J.J.J.).L.0 0 D.G.H.H.H.H.H.G.H.H.H.J.J.J.H.H.J.H.H.H.J.",
"L.L.L.L.L.L.L.L.L.L.L.L.0 $ 0 L.e e e e L.L.q q q L.e e e e e L.L.L.L.L.L.L.L.L.q 0 0 0 L.L.L.L.q q 0 q L.L.e e e L.L.L.L.L.L.L.",
"$ 0 $ q 0 q q 0 0 q q q q 0 0 q q q 0 0 0 0 0 $ $ 0 0 q q q $ 0 0 0 $ q 0 q 0 q 0 0 $ 0 $ q $ 0 $ $ 8 $ 0 0 0 q $ 0 $ 0 $ q $ q ",
"q A.. Z.Z.Z.A.Z.Z.A.A.A.A.A.A.A.A.A.A.A.A.A.A.A.A.A.A.A.A.A.S.(.q $ q Z.C.Z.A.A.A.Z.Z.Z.Z.A.A.A.A.A.A.A.A.A.A.A.A.A.A.A.A.S.(.0 ",
"$ . C.A.A.Z.A.A.Z.Z.A.Z.Z.Z.Z.Z.Z.A.Z.Z.Z.A.A.A.A.A.A.A.A.S.S.G.q 0 $ C.V.Z.A.A.A.A.A.A.A.A.A.A.A.A.A.A.Z.Z.A.A.A.A.A.A.A.S.G.L.",
"0 . Z.S.S.S.S.S.S.A.A.A.A.A.A.S.A.S.S.A.A.S.S.S.S.S.S.A.S.S.D.J.L.0 0 . Z.A.S.D.D.D.D.S.S.S.S.S.S.S.S.S.S.A.A.S.S.S.S.S.S.F.J.L.",
"0 Z.Z.S.S.S.S.S.S.S.S.S.S.A.S.S.S.S.D.S.S.S.S.S.S.S.S.S.S.D.G.J.L.q 0 Z.Z.A.S.D.F.F.D.D.S.D.D.D.S.S.S.S.S.S.S.S.S.S.S.S.S.G.J.L.",
"q . . A.S.S.S.A.S.S.S.S.S.A.S.S.S.S.D.S.S.S.S.A.A.A.S.D.D.D.G.K.L.q 0 . . S.D.F.D.S.S.D.S.D.D.D.S.S.S.S.S.S.S.S.S.S.S.S.S.G.K.L.",
"$ . . S.S.D.S.S.S.D.S.S.S.S.S.D.D.D.G.G.D.D.D.S.S.S.S.D.D.S.F.J.e q $ Z.Z.S.F.G.F.D.D.F.D.D.F.F.D.S.D.D.D.S.D.D.S.D.D.D.F.G.K.L.",
"q A.A.D.D.F.F.F.F.G.F.G.G.G.G.H.H.H.J.J.H.H.G.G.G.G.F.F.F.F.F.J.e q $ A.A.S.F.G.G.F.F.G.G.G.G.G.G.G.G.H.H.G.G.G.G.G.G.G.G.G.J.L.",
"$ D.G.H.H.H.H.H.H.H.J.J.J.J.J.K.K.K.K.K.K.K.K.J.J.J.J.J.J.J.J.xXL.0 $ (.G.G.H.H.H.H.H.J.J.J.J.J.J.J.K.K.K.K.J.J.J.J.J.J.J.J.xXL.",
"q 0 L.L.L.L.L.L.L.L.L.L.q q q L.e e e e L.L.L.e e e e L.L.e e L.L.0 q 0 L.L.L.L.L.L.e e e L.mXq mXL.e L.L.L.L.e e e L.L.L.L.L.L.",
"$ q $ q $ 0 $ 0 0 0 0 $ 8 8 $ 0 $ q $ 0 $ 0 nXq q q nX0 $ 0 0 q 0 0 $ q $ 0 0 0 0 0 0 0 0 0 $ $ $ 0 0 0 0 0 q mXe e mXq 0 0 $ 0 ",
"Z.Z.A.Z.Z.A.A.A.A.A.A.Z.Z.A.A.A.A.(.0 $ 0 Z.C.. Z.Z.Z.Z.Z.Z.Z.A.A.A.A.A.A.A.A.A.A.A.A.A.A.S.(.0 q $ A.. Z.Z.Z.Z.A.A.A.A.A.A.A.A.",
"A.A.A.A.. Z.Z.Z.Z.. . . Z.A.A.A.S.G.L.0 0 . C.. . Z.A.A.A.A.Z.. . Z.Z.. . Z.A.A.A.A.A.A.S.D.H.q 0 $ . . A.A.. V.C.C.C.. Z.A.A.S.",
"A.S.D.S.A.A.S.S.S.S.A.A.S.S.S.D.G.J.L.0 0 Z.A.A.S.S.S.S.S.D.S.A.A.S.S.A.A.S.S.S.D.S.S.S.D.F.J.mX0 $ Z.A.S.S.A.Z.Z.Z.Z.A.S.S.D.G.",
"A.S.D.F.D.S.S.S.D.D.D.D.D.S.D.G.H.K.L.0 nXZ.A.S.D.F.D.S.S.F.F.S.S.S.D.S.S.D.D.D.D.D.D.F.G.H.K.L.0 $ . Z.A.S.S.S.S.S.S.S.S.S.S.D.",
"S.S.S.D.D.S.D.D.D.F.F.F.D.S.F.G.J.K.L.0 nXZ.A.S.D.F.F.S.S.D.D.S.S.F.F.D.D.D.D.F.F.D.D.G.G.J.K.L.0 $ . C.Z.A.S.D.S.D.S.S.S.A.A.A.",
"F.S.S.S.S.D.D.D.D.F.F.D.S.D.D.F.H.K.L.0 nXA.S.D.S.S.S.S.S.D.D.S.S.F.G.F.D.D.D.F.F.D.F.G.G.J.K.L.0 0 Z.Z.S.S.D.F.F.F.F.D.S.S.S.S.",
"F.S.S.S.D.F.F.F.F.G.F.D.F.F.D.D.G.J.L.0 0 A.S.D.S.S.S.S.D.F.F.F.D.F.G.G.G.F.D.F.F.D.D.G.G.G.J.L.q 0 A.S.F.G.G.G.G.H.G.G.F.S.D.G.",
"F.D.F.F.G.H.H.H.H.H.G.G.G.G.G.F.G.K.L.0 $ A.S.G.G.F.F.G.G.G.H.H.G.H.H.H.H.G.G.G.G.G.G.G.G.G.J.L.q 0 A.F.H.H.J.J.J.J.J.J.G.G.F.G.",
"J.J.J.J.J.J.K.K.K.K.K.K.J.J.J.J.J.xXL.0 0 (.G.J.J.J.J.J.J.J.K.K.K.K.K.K.K.J.J.J.J.J.J.J.J.K.xXe 0 $ (.H.K.K.K.K.K.K.K.K.K.J.J.J.",
"L.L.L.L.L.L.L.L.L.L.L.L.L.L.L.L.L.L.L.0 $ 0 q mXmXL.L.L.L.L.L.L.L.L.L.L.L.L.L.e e e e e L.e e e q 0 0 L.L.L.L.L.L.e e e e e L.L.",
"q $ q $ q q q 0 0 0 0 0 $ $ q 0 0 0 0 $ $ $ $ $ 0 0 0 $ 0 0 0 $ 0 0 q 0 0 0 nXq q nXq q nX0 nXq nX$ 0 0 q $ 0 0 0 0 nXq nX0 0 0 ",
"$ $ $ $ $ $ $ $ $ $ $ $ $ $ $ $ $ $ $ $ $ $ $ $ $ $ $ $ $ $ $ $ $ $ $ $ $ $ $ $ $ $ $ $ $ $ $ $ $ $ $ $ $ $ $ $ $ $ $ $ $ $ $ $ "
};
